:version 1.10
:name ASF
:units
  mass 1
  length 1
  angle deg
:documentation
  ASF file generated by Kaydara
:root
  axis xyz
  order  tx ty tz rx ry rz
  position 0 0 0
  orientation 0 0 0
:bonedata
  begin
    id 1
    name RightUpLegDummy
    direction -1 2.30186e-007 8.31532e-007
    length 4.04083
    axis 0 0 0 xyz
  end
  begin
    id 2
    name RightUpLeg
    direction -0.000919234 -0.999985 0.00544864
    length 17.4221
    axis -3.80308 -0.00076134 -0.0523649 xyz
    dof rx ry rz
  end
  begin
    id 3
    name RightLeg
    direction -0.000919271 -0.999984 -0.00555045
    length 17.1239
    axis 4.00314 0.0181274 -0.183583 xyz
    dof rx ry rz
  end
  begin
    id 4
    name RightFoot
    direction -2.57843e-005 -4.04509e-007 1
    length 6.72091
    axis 8.18909e-005 -0.122003 -0.403008 xyz
    dof rx ry rz
  end
  begin
    id 5
    name RightToes
    direction 0.00116825 -0.014069 0.9999
    length 3.85082
    axis 0.000514414 0.540638 -0.356797 xyz
    dof rx ry rz
  end
  begin
    id 6
    name SpineDummy
    direction 0.0168869 0.966876 -0.254689
    length 6.99894
    axis 0 0 0 xyz
  end
  begin
    id 7
    name Spine
    direction -0.0132008 0.999903 0.00446247
    length 11.1999
    axis -0.00148109 0.00725429 0.756411 xyz
    dof rx ry rz
  end
  begin
    id 8
    name Spine1
    direction 0 0 0
    length 0
    axis -0.000934958 0.0245693 1.46543 xyz
    dof rx ry rz
  end
  begin
    id 9
    name HEadDummy
    direction -0.0255732 0.999672 0.00128215
    length 3.43865
    axis -0.000934958 0.0245693 1.46543 xyz
  end
  begin
    id 10
    name HEad
    direction -0.0472656 0.980052 0.19304
    length 5.12695
    axis -0.000934954 0.0245693 1.46543 xyz
    dof rx ry rz
  end
  begin
    id 11
    name LeftShoulder1Dummy
    direction 0.953098 0.301717 -0.023914
    length 3.68488
    axis -0.000934958 0.0245693 1.46543 xyz
  end
  begin
    id 12
    name LeftShoulder1
    direction 0.962466 0.271167 0.0112566
    length 3.13809
    axis -0.000934958 0.0245693 1.46543 xyz
    dof rx ry rz
  end
  begin
    id 13
    name LeftArm
    direction 0.999943 0.00455037 -0.00961766
    length 11.3419
    axis -23.1648 0.685459 1.22814 xyz
    dof rx ry rz
  end
  begin
    id 14
    name LeftForeArm
    direction 0.999332 0.0131969 0.0340885
    length 8.70632
    axis -9.90633 0.618216 0.0826942 xyz
    dof rx ry rz
  end
  begin
    id 15
    name LeftHand
    direction 0.994373 -0.0366703 0.0993905
    length 5.32135
    axis 0.00675269 0.680415 0.445699 xyz
    dof rx ry rz
  end
  begin
    id 16
    name RightShoulderDummy
    direction -0.967298 0.252589 -0.0230903
    length 3.68488
    axis -0.000934958 0.0245693 1.46543 xyz
  end
  begin
    id 17
    name RightShoulder
    direction -0.975062 0.221602 0.0120823
    length 3.13809
    axis 0.216257 0.0246515 1.45863 xyz
    dof rx ry rz
  end
  begin
    id 18
    name RightArm
    direction -0.99886 -0.00851186 -0.0469687
    length 10.3947
    axis -23.196 0.23503 -0.532632 xyz
    dof rx ry rz
  end
  begin
    id 19
    name RightForeArm
    direction -0.99909 0.00114866 0.0426317
    length 8.68355
    axis -9.91764 -0.134943 0.610517 xyz
    dof rx ry rz
  end
  begin
    id 20
    name RightHand
    direction -0.992888 -0.0489538 0.10852
    length 5.28593
    axis -0.00275396 -0.197403 0.246414 xyz
    dof rx ry rz
  end
  begin
    id 21
    name LeftUpLegDummy
    direction 1 -2.30186e-007 -8.31532e-007
    length 4.04083
    axis 0 0 0 xyz
  end
  begin
    id 22
    name LeftUpLeg
    direction -0.000920097 -1 2.79241e-006
    length 17.4221
    axis -3.48782 0.00143434 -0.0532288 xyz
    dof rx ry rz
  end
  begin
    id 23
    name LeftLeg
    direction -0.000920097 -1 2.7912e-006
    length 17.1239
    axis 3.68162 -0.00806512 -0.0529896 xyz
    dof rx ry rz
  end
  begin
    id 24
    name LeftFoot
    direction -2.57845e-005 -3.987e-007 1
    length 6.72091
    axis 3.02372e-005 -0.00147829 -0.214229 xyz
    dof rx ry rz
  end
  begin
    id 25
    name LeftToes
    direction 0.00813577 -0.00488255 0.999955
    length 3.85048
    axis 3.89895e-005 -0.0014783 -0.214229 xyz
    dof rx ry rz
  end
:hierarchy
  begin
    root RightUpLegDummy SpineDummy LeftUpLegDummy
    RightUpLegDummy RightUpLeg
    RightUpLeg RightLeg
    RightLeg RightFoot
    RightFoot RightToes
    SpineDummy Spine
    Spine Spine1
    Spine1 HEadDummy LeftShoulder1Dummy RightShoulderDummy
    HEadDummy HEad
    LeftShoulder1Dummy LeftShoulder1
    LeftShoulder1 LeftArm
    LeftArm LeftForeArm
    LeftForeArm LeftHand
    RightShoulderDummy RightShoulder
    RightShoulder RightArm
    RightArm RightForeArm
    RightForeArm RightHand
    LeftUpLegDummy LeftUpLeg
    LeftUpLeg LeftLeg
    LeftLeg LeftFoot
    LeftFoot LeftToes
  end

:SAMPLES-PER-SECOND 30
:FULLY-SPECIFIED
:DEGREES
93
root  -15.0976 34.5615 -2.18942 -128.361 -3.01686 179.542
RightUpLeg  -61.6773 -5.98033 10.3483
RightLeg  5.84239 0.321407 0.013181
RightFoot  13.2491 0.0420261 0.172129
RightToes  -16.4431 -0.0600277 -0.144906
Spine  7.34684 0.349114 1.26135
Spine1  14.6359 0.741922 2.78612
HEad  -17.8481 -5.79267 2.70967
LeftShoulder1  -1.94126e-019 -3.10601e-018 -2.51263e-017
LeftArm  -13.2385 13.4887 -84.6801
LeftForeArm  14.5175 -31.6346 -6.07055
LeftHand  -0.304506 -2.2121 4.84892
RightShoulder  -4.96962e-017 0 -2.36833e-017
RightArm  -16.4261 -12.7828 78.2305
RightForeArm  34.0123 36.6426 6.16148
RightHand  -0.258196 -3.65929 -16.6717
LeftUpLeg  -62.4941 -5.19849 5.24654
LeftLeg  7.31189 9.77907 0.61635
LeftFoot  14.6057 -0.317865 2.64151
LeftToes  -15.1714 1.31424e-006 1.14295e-007
94
root  -15.114 34.5384 -2.08588 -127.686 -3.00041 179.442
RightUpLeg  -62.793 -5.99819 10.4594
RightLeg  6.33939 0.44212 0.0215999
RightFoot  13.159 0.0395738 0.190836
RightToes  -16.3607 -0.0591588 -0.143846
Spine  8.36009 0.349754 1.33499
Spine1  16.6357 0.746457 2.83211
HEad  -16.5806 -5.80777 2.33156
LeftShoulder1  -1.94126e-019 -3.10601e-018 -2.51263e-017
LeftArm  -13.2643 13.0322 -84.4851
LeftForeArm  14.6756 -33.9168 -6.63971
LeftHand  -0.305683 -2.33302 4.79971
RightShoulder  -4.96962e-017 0 -2.36833e-017
RightArm  -16.142 -12.2063 77.6329
RightForeArm  33.3345 38.8226 6.78364
RightHand  -0.508523 -2.5197 -20.2886
LeftUpLeg  -63.4351 -5.22378 5.22599
LeftLeg  7.49329 9.80625 0.649046
LeftFoot  14.703 -0.322576 2.66142
LeftToes  -14.8232 1.31424e-006 1.14295e-007
95
root  -15.1523 34.5136 -1.99856 -126.747 -2.74136 179.232
RightUpLeg  -64.2916 -6.13062 10.6559
RightLeg  7.02936 0.942946 0.0562383
RightFoot  12.8768 0.027401 0.288573
RightToes  -16.1056 -0.0584143 -0.142983
Spine  9.33406 0.423325 1.31602
Spine1  18.5479 0.906775 2.71528
HEad  -15.9191 -6.06881 2.2255
LeftShoulder1  -1.94126e-019 -3.10601e-018 -2.51263e-017
LeftArm  -12.6256 12.2826 -84.0862
LeftForeArm  14.0292 -36.2025 -7.29278
LeftHand  -0.300261 -2.29548 4.73828
RightShoulder  -4.96962e-017 0 -2.36833e-017
RightArm  -16.6371 -11.3047 77.2625
RightForeArm  32.247 40.3666 7.28489
RightHand  -0.240584 -3.72728 -16.0939
LeftUpLeg  -64.6004 -5.26972 5.08045
LeftLeg  7.71536 9.98866 0.699681
LeftFoot  14.7696 -0.331167 2.71639
LeftToes  -14.6361 1.31424e-006 1.14295e-007
96
root  -15.1952 34.498 -1.92283 -125.832 -2.51903 178.965
RightUpLeg  -65.6933 -6.44933 11.0223
RightLeg  7.54615 1.66256 0.113373
RightFoot  12.6484 0.0107644 0.430521
RightToes  -15.8083 -0.0577861 -0.142295
Spine  10.2257 0.399238 1.30479
Spine1  20.2952 0.87158 2.6058
HEad  -14.6741 -6.0232 1.89922
LeftShoulder1  -1.94126e-019 -3.10601e-018 -2.51263e-017
LeftArm  -12.3978 11.4838 -83.7711
LeftForeArm  13.352 -38.0911 -7.87432
LeftHand  -0.281962 -2.13928 4.54184
RightShoulder  -4.96962e-017 0 -2.36833e-017
RightArm  -16.8641 -10.2845 76.903
RightForeArm  31.6155 41.8467 7.7659
RightHand  -0.225028 -3.77901 -15.4576
LeftUpLeg  -65.6603 -5.35123 4.8514
LeftLeg  7.80459 10.0878 0.722257
LeftFoot  14.8739 -0.338843 2.75695
LeftToes  -14.2699 1.31424e-006 1.14295e-007
97
root  -15.2105 34.4943 -1.84978 -125.14 -2.28375 178.868
RightUpLeg  -66.6487 -6.52948 11.3573
RightLeg  7.69126 2.16896 0.153086
RightFoot  12.7018 -0.000828838 0.532555
RightToes  -15.3875 -0.0572661 -0.141642
Spine  11.1689 0.402015 1.27998
Spine1  22.1427 0.901645 2.45545
HEad  -13.6775 -5.95302 1.78183
LeftShoulder1  -1.94126e-019 -3.10601e-018 -2.51263e-017
LeftArm  -12.4945 10.6296 -83.3511
LeftForeArm  12.7281 -39.8693 -8.45238
LeftHand  -0.271246 -2.22501 4.33343
RightShoulder  -4.96962e-017 0 -2.36833e-017
RightArm  -16.9866 -9.14461 76.6733
RightForeArm  31.1179 43.5024 8.31993
RightHand  -0.19558 -3.94549 -14.8071
LeftUpLeg  -66.4752 -5.22639 4.64035
LeftLeg  7.88392 10.0704 0.734956
LeftFoot  14.9886 -0.343099 2.76919
LeftToes  -14.066 1.31424e-006 1.14295e-007
98
root  -15.2212 34.4853 -1.80797 -124.628 -2.09738 178.764
RightUpLeg  -67.3692 -6.5429 11.481
RightLeg  7.88506 2.43594 0.18007
RightFoot  12.6613 -0.00607716 0.580418
RightToes  -15.2123 -0.0568465 -0.14092
Spine  12.1468 0.42761 1.24423
Spine1  24.0526 0.973415 2.2995
HEad  -13.1907 -5.99928 1.85329
LeftShoulder1  -1.94126e-019 -3.10601e-018 -2.51263e-017
LeftArm  -12.3164 9.76558 -82.8601
LeftForeArm  11.5957 -41.7323 -9.125
LeftHand  -0.257581 -2.25853 4.10902
RightShoulder  -4.96962e-017 0 -2.36833e-017
RightArm  -17.0115 -8.266 76.4443
RightForeArm  30.3691 45.6605 9.10306
RightHand  -0.207985 -3.87939 -15.141
LeftUpLeg  -67.1318 -5.1633 4.46436
LeftLeg  8.09083 10.0668 0.771033
LeftFoot  14.9954 -0.344319 2.76683
LeftToes  -13.9871 1.31424e-006 1.14295e-007
99
root  -15.2254 34.4764 -1.79326 -124.322 -2.12209 178.637
RightUpLeg  -67.8224 -6.5209 11.3276
RightLeg  8.14249 2.2831 0.17915
RightFoot  12.5057 -0.00388919 0.534713
RightToes  -15.2195 -0.0565191 -0.140152
Spine  13.0623 0.395686 1.26379
Spine1  25.8394 0.927865 2.23116
HEad  -12.5249 -6.1887 1.84253
LeftShoulder1  -1.94126e-019 -3.10601e-018 -2.51263e-017
LeftArm  -12.0688 9.1598 -82.4711
LeftForeArm  11.0531 -43.7703 -9.86611
LeftHand  -0.25347 -2.19857 4.07386
RightShoulder  -4.96962e-017 0 -2.36833e-017
RightArm  -17.0104 -7.70156 76.2091
RightForeArm  30.4125 48.036 9.98137
RightHand  -0.209103 -3.92317 -15.6955
LeftUpLeg  -67.5797 -5.32458 4.5431
LeftLeg  8.29273 10.1992 0.817018
LeftFoot  15.0095 -0.346855 2.80098
LeftToes  -13.846 1.31424e-006 1.14295e-007
